<svg width="488" height="489" viewBox="0 0 488 489" fill="none" xmlns="http://www.w3.org/2000/svg">
<g clip-path="url(#clip0)">
<path d="M46.9011 411.94L42.6057 395.005C34.9899 391.779 27.1981 388.984 19.2675 386.635L18.7253 394.505L16.5266 385.834C6.69117 383.024 0 381.787 0 381.787C0 381.787 9.03592 416.144 27.9944 442.41L50.0826 446.289L32.9229 448.762C35.3076 451.63 37.8705 454.346 40.5962 456.893C68.1722 482.481 98.8871 494.221 109.199 483.114C119.511 472.008 105.516 442.262 77.9401 416.677C69.3914 408.745 58.6524 402.379 47.9022 397.368L46.9011 411.94Z" fill="#27AE60"/>
<path d="M87.7504 393.546L92.8301 376.83C87.9794 370.132 82.7548 363.714 77.1809 357.605L72.6473 364.062L75.248 355.503C68.2806 348.018 63.1923 343.502 63.1923 343.502C63.1923 343.502 53.1643 377.582 55.8096 409.863L72.7127 424.597L56.7414 417.847C57.3002 421.535 58.0906 425.185 59.1078 428.774C69.4834 464.928 89.7062 490.848 104.276 486.67C118.846 482.491 122.247 449.796 111.872 413.642C108.655 402.434 102.753 391.436 96.142 381.592L87.7504 393.546Z" fill="#219653"/>
<path d="M340.321 115.844H337.642V42.4692C337.642 36.8921 336.543 31.3696 334.408 26.217C332.273 21.0644 329.144 16.3826 325.199 12.439C321.254 8.49532 316.57 5.36705 311.416 3.23277C306.261 1.0985 300.737 0 295.158 0H139.644C128.376 0 117.57 4.47442 109.603 12.439C101.636 20.4035 97.1597 31.2057 97.1597 42.4692V445.018C97.1597 450.595 98.2585 456.118 100.394 461.27C102.529 466.423 105.658 471.105 109.603 475.048C113.548 478.992 118.231 482.12 123.386 484.255C128.54 486.389 134.065 487.487 139.644 487.487H295.158C306.425 487.487 317.231 483.013 325.198 475.048C333.165 467.084 337.641 456.282 337.641 445.018V168.074H340.32L340.321 115.844Z" fill="#163F5B"/>
<path d="M296.872 11.0449H276.574C277.508 13.3329 277.864 15.8154 277.612 18.2735C277.359 20.7316 276.506 23.09 275.127 25.1409C273.748 27.1917 271.886 28.8721 269.704 30.0339C267.523 31.1957 265.089 31.8034 262.617 31.8033H173.525C171.053 31.8032 168.619 31.1954 166.438 30.0335C164.256 28.8715 162.394 27.1912 161.015 25.1403C159.636 23.0895 158.783 20.7312 158.531 18.2732C158.279 15.8151 158.635 13.3328 159.569 11.0449H140.609C132.195 11.0449 124.125 14.3863 118.175 20.3342C112.225 26.282 108.882 34.349 108.882 42.7605V444.725C108.882 453.136 112.225 461.203 118.175 467.151C124.125 473.099 132.195 476.44 140.609 476.44H296.872C305.287 476.44 313.356 473.099 319.306 467.151C325.256 461.203 328.599 453.136 328.599 444.725V42.7598C328.599 34.3484 325.256 26.2816 319.306 20.3339C313.356 14.3862 305.286 11.0449 296.872 11.0449Z" fill="white"/>
<path d="M198.828 171.167C198.828 168.357 199.568 165.597 200.974 163.164C202.379 160.731 204.401 158.711 206.836 157.308C204.403 155.903 201.642 155.163 198.831 155.162C196.021 155.162 193.26 155.901 190.826 157.306C188.392 158.71 186.371 160.731 184.965 163.164C183.56 165.597 182.82 168.357 182.82 171.166C182.82 173.976 183.56 176.736 184.965 179.169C186.371 181.602 188.392 183.622 190.826 185.026C193.26 186.431 196.021 187.17 198.831 187.17C201.642 187.17 204.403 186.43 206.836 185.025C204.402 183.621 202.38 181.602 200.974 179.169C199.568 176.736 198.828 173.976 198.828 171.167Z" fill="#CCCCCC"/>
<path d="M218.954 171.167C218.954 168.357 219.694 165.597 221.099 163.164C222.505 160.731 224.527 158.711 226.962 157.308C224.529 155.903 221.768 155.163 218.957 155.162C216.147 155.162 213.386 155.901 210.952 157.306C208.518 158.71 206.497 160.731 205.091 163.164C203.686 165.597 202.946 168.357 202.946 171.166C202.946 173.976 203.686 176.736 205.091 179.169C206.497 181.602 208.518 183.622 210.952 185.026C213.386 186.431 216.147 187.17 218.957 187.17C221.768 187.17 224.529 186.43 226.962 185.025C224.528 183.621 222.506 181.602 221.1 179.169C219.694 176.736 218.954 173.976 218.954 171.167Z" fill="#CCCCCC"/>
<path d="M238.624 187.17C247.465 187.17 254.633 180.005 254.633 171.166C254.633 162.328 247.465 155.163 238.624 155.163C229.782 155.163 222.614 162.328 222.614 171.166C222.614 180.005 229.782 187.17 238.624 187.17Z" fill="#006EAC"/>
<path d="M265.378 221.153H172.073C171.184 221.151 170.333 220.798 169.705 220.17C169.077 219.542 168.723 218.691 168.722 217.803V124.53C168.723 123.642 169.077 122.79 169.705 122.162C170.333 121.535 171.184 121.181 172.073 121.18H265.378C266.267 121.181 267.118 121.535 267.746 122.162C268.375 122.79 268.728 123.642 268.729 124.53V217.803C268.728 218.691 268.375 219.542 267.746 220.17C267.118 220.798 266.267 221.151 265.378 221.153ZM172.073 122.521C171.54 122.521 171.029 122.733 170.652 123.11C170.275 123.487 170.063 123.998 170.062 124.53V217.804C170.063 218.337 170.275 218.847 170.652 219.224C171.029 219.601 171.54 219.813 172.073 219.813H265.378C265.911 219.813 266.422 219.601 266.799 219.224C267.176 218.847 267.388 218.337 267.389 217.804V124.53C267.388 123.998 267.176 123.487 266.799 123.11C266.422 122.733 265.911 122.521 265.378 122.521H172.073Z" fill="#CCCCCC"/>
<path d="M286.212 292.651H143.109V293.991H286.212V292.651Z" fill="#CCCCCC"/>
<path d="M147.629 284.286C150.125 284.286 152.148 282.263 152.148 279.768C152.148 277.273 150.125 275.25 147.629 275.25C145.133 275.25 143.109 277.273 143.109 279.768C143.109 282.263 145.133 284.286 147.629 284.286Z" fill="#006EAC"/>
<path d="M286.212 337.826H143.109V339.165H286.212V337.826Z" fill="#CCCCCC"/>
<path d="M147.629 329.461C150.125 329.461 152.148 327.438 152.148 324.943C152.148 322.448 150.125 320.426 147.629 320.426C145.133 320.426 143.109 322.448 143.109 324.943C143.109 327.438 145.133 329.461 147.629 329.461Z" fill="#006EAC"/>
<path d="M283.594 389.268H238.369C237.588 389.267 236.839 388.957 236.287 388.405C235.734 387.852 235.424 387.104 235.423 386.323V370.477C235.424 369.696 235.734 368.948 236.287 368.396C236.839 367.843 237.588 367.533 238.369 367.532H283.594C284.375 367.533 285.124 367.843 285.676 368.396C286.229 368.948 286.539 369.696 286.54 370.477V386.323C286.539 387.104 286.229 387.852 285.676 388.405C285.124 388.957 284.375 389.267 283.594 389.268Z" fill="#27AE60"/>
<path d="M162.37 284.286C164.866 284.286 166.89 282.263 166.89 279.768C166.89 277.273 164.866 275.25 162.37 275.25C159.874 275.25 157.851 277.273 157.851 279.768C157.851 282.263 159.874 284.286 162.37 284.286Z" fill="#006EAC"/>
<path d="M177.112 284.286C179.608 284.286 181.631 282.263 181.631 279.768C181.631 277.273 179.608 275.25 177.112 275.25C174.616 275.25 172.593 277.273 172.593 279.768C172.593 282.263 174.616 284.286 177.112 284.286Z" fill="#006EAC"/>
<path d="M162.37 329.461C164.866 329.461 166.89 327.438 166.89 324.943C166.89 322.448 164.866 320.426 162.37 320.426C159.874 320.426 157.851 322.448 157.851 324.943C157.851 327.438 159.874 329.461 162.37 329.461Z" fill="#006EAC"/>
<path d="M177.112 329.461C179.608 329.461 181.631 327.438 181.631 324.943C181.631 322.448 179.608 320.426 177.112 320.426C174.616 320.426 172.593 322.448 172.593 324.943C172.593 327.438 174.616 329.461 177.112 329.461Z" fill="#006EAC"/>
<path d="M485.888 489H15.7669C14.7605 489 13.9453 488.643 13.9453 488.203C13.9453 487.763 14.7605 487.405 15.7669 487.405H485.888C486.894 487.405 487.71 487.762 487.71 488.203C487.71 488.643 486.894 489 485.888 489Z" fill="#3F3D56"/>
<path d="M369.738 320.377C370.059 320.524 370.368 320.697 370.662 320.893L400.03 308.363L401.078 300.629L412.813 300.557L412.12 318.294L373.357 328.542C373.275 328.811 373.178 329.075 373.064 329.333C372.503 330.528 371.602 331.531 370.473 332.217C369.344 332.902 368.038 333.238 366.719 333.183C365.399 333.129 364.125 332.686 363.057 331.91C361.988 331.134 361.173 330.059 360.713 328.822C360.254 327.584 360.17 326.238 360.473 324.953C360.776 323.668 361.452 322.501 362.416 321.599C363.381 320.697 364.59 320.1 365.892 319.882C367.195 319.665 368.533 319.837 369.738 320.377Z" fill="#FFB8B8"/>
<path d="M417.08 481.109H409.053L405.234 450.156L417.081 450.157L417.08 481.109Z" fill="#FFB8B8"/>
<path d="M403.318 478.816H418.8V488.56H393.571C393.571 485.976 394.598 483.497 396.426 481.67C398.254 479.842 400.733 478.816 403.318 478.816Z" fill="#2F2E41"/>
<path d="M448.3 478.841L440.311 479.628L433.475 449.199L445.265 448.038L448.3 478.841Z" fill="#FFB8B8"/>
<path d="M434.38 477.908L449.787 476.391L450.743 486.088L425.635 488.561C425.51 487.287 425.636 486.001 426.008 484.777C426.38 483.552 426.989 482.413 427.801 481.424C428.613 480.435 429.612 479.615 430.741 479.012C431.87 478.409 433.106 478.034 434.38 477.908Z" fill="#2F2E41"/>
<path d="M419.314 267.8C428.196 267.8 435.396 260.602 435.396 251.723C435.396 242.844 428.196 235.647 419.314 235.647C410.433 235.647 403.232 242.844 403.232 251.723C403.232 260.602 410.433 267.8 419.314 267.8Z" fill="#FFB8B8"/>
<path d="M407.258 474.849C406.569 474.851 405.9 474.609 405.371 474.166C404.842 473.724 404.487 473.108 404.368 472.429C400.213 449.372 386.631 373.981 386.306 371.893C386.299 371.845 386.296 371.796 386.296 371.748V366.127C386.295 365.922 386.359 365.722 386.479 365.556L388.273 363.044C388.358 362.923 388.47 362.823 388.6 362.752C388.73 362.681 388.874 362.641 389.022 362.635C399.251 362.155 432.751 360.75 434.369 362.771C435.994 364.803 435.42 370.958 435.289 372.171L435.295 372.298L450.345 468.513C450.463 469.281 450.274 470.064 449.819 470.693C449.363 471.322 448.679 471.746 447.913 471.874L438.513 473.422C437.812 473.535 437.095 473.392 436.491 473.021C435.888 472.649 435.437 472.074 435.222 471.398C432.315 462.111 422.566 430.87 419.187 418.781C419.166 418.704 419.118 418.638 419.051 418.595C418.985 418.551 418.905 418.533 418.826 418.544C418.747 418.555 418.676 418.595 418.624 418.655C418.572 418.715 418.544 418.792 418.545 418.872C418.714 430.395 419.122 459.796 419.262 469.951L419.278 471.045C419.284 471.785 419.012 472.501 418.516 473.051C418.02 473.6 417.335 473.944 416.598 474.014L407.533 474.837C407.441 474.845 407.349 474.849 407.258 474.849Z" fill="#2F2E41"/>
<path d="M409.108 274.121C406.302 275.789 404.622 278.854 403.659 281.972C401.874 287.746 400.8 293.716 400.46 299.75L399.442 317.815L386.834 365.709C397.761 374.951 404.065 372.851 418.774 365.291C433.484 357.73 435.165 367.811 435.165 367.811L438.106 327.06L442.309 282.53C441.366 281.394 440.298 280.368 439.126 279.47C435.241 276.45 430.722 274.352 425.908 273.332C421.094 272.312 416.111 272.397 411.336 273.582L409.108 274.121Z" fill="#8B8F92"/>
<path d="M405.013 330.05C405.352 330.178 405.681 330.332 405.996 330.511L435.034 315.982L435.516 308.11L447.495 307.285L448.137 325.228L409.331 338.057C409.014 339.415 408.291 340.645 407.257 341.583C406.224 342.521 404.93 343.122 403.547 343.306C402.163 343.491 400.757 343.25 399.514 342.616C398.271 341.982 397.25 340.984 396.588 339.756C395.926 338.528 395.653 337.128 395.807 335.741C395.96 334.355 396.532 333.048 397.447 331.994C398.362 330.94 399.575 330.19 400.927 329.843C402.279 329.496 403.704 329.568 405.013 330.05Z" fill="#FFB8B8"/>
<path d="M442.099 282.733C449.244 285.254 450.502 312.564 450.502 312.564C442.097 307.942 432.01 315.505 432.01 315.505C432.01 315.505 429.909 308.362 427.387 299.12C426.626 296.52 426.535 293.77 427.123 291.126C427.71 288.481 428.958 286.028 430.749 283.996C430.749 283.996 434.954 280.211 442.099 282.733Z" fill="#879BA6"/>
<path d="M433.735 255.975C431.731 254.372 428.997 257.285 428.997 257.285L427.394 242.863C427.394 242.863 417.375 244.063 410.963 242.462C404.551 240.862 403.55 248.272 403.55 248.272C403.219 245.279 403.152 242.263 403.349 239.258C403.75 235.652 408.96 232.047 418.177 229.643C427.394 227.239 432.203 237.655 432.203 237.655C438.615 240.86 435.738 257.577 433.735 255.975Z" fill="#2F2E41"/>
</g>
<defs>
<clipPath id="clip0">
<rect width="487.71" height="489" fill="white"/>
</clipPath>
</defs>
</svg>
