<svg width="735" height="646" viewBox="0 0 735 646" fill="none" xmlns="http://www.w3.org/2000/svg">
<path d="M222.5 385.569C83.7 424.369 16.3333 574.735 0 645.069H826.5C845 411.069 854.4 -44.8314 744 3.5686C606 64.0686 604 116.569 541.5 222.569C479 328.569 396 337.069 222.5 385.569Z" fill="url(#paint0_linear)"/>
<g clip-path="url(#clip0)">
<path d="M214.901 545.94L210.606 529.005C202.99 525.779 195.198 522.984 187.267 520.635L186.725 528.505L184.527 519.834C174.691 517.024 168 515.787 168 515.787C168 515.787 177.036 550.144 195.994 576.41L218.083 580.289L200.923 582.762C203.308 585.63 205.87 588.346 208.596 590.893C236.172 616.481 266.887 628.221 277.199 617.114C287.511 606.008 273.516 576.262 245.94 550.677C237.391 542.745 226.652 536.379 215.902 531.368L214.901 545.94Z" fill="#27AE60"/>
<path d="M255.75 527.546L260.83 510.83C255.979 504.132 250.755 497.714 245.181 491.605L240.647 498.062L243.248 489.503C236.28 482.018 231.192 477.502 231.192 477.502C231.192 477.502 221.164 511.582 223.809 543.863L240.712 558.597L224.741 551.847C225.3 555.535 226.09 559.185 227.108 562.774C237.483 598.928 257.706 624.848 272.276 620.67C286.846 616.491 290.247 583.796 279.871 547.642C276.655 536.434 270.753 525.436 264.142 515.592L255.75 527.546Z" fill="#219653"/>
<path d="M508.321 249.844H505.642V176.469C505.642 170.892 504.543 165.37 502.408 160.217C500.273 155.064 497.143 150.383 493.198 146.439C489.253 142.495 484.57 139.367 479.416 137.233C474.261 135.099 468.737 134 463.158 134H307.643C296.376 134 285.57 138.474 277.603 146.439C269.636 154.403 265.16 165.206 265.16 176.469V579.018C265.16 584.595 266.258 590.118 268.393 595.27C270.528 600.423 273.658 605.105 277.603 609.048C281.548 612.992 286.231 616.12 291.386 618.255C296.54 620.389 302.064 621.487 307.643 621.487H463.158C474.425 621.487 485.231 617.013 493.198 609.048C501.165 601.084 505.641 590.282 505.641 579.018V302.074H508.32L508.321 249.844Z" fill="#163F5B"/>
<path d="M464.872 145.045H444.574C445.508 147.333 445.864 149.815 445.612 152.274C445.359 154.732 444.506 157.09 443.127 159.141C441.748 161.192 439.886 162.872 437.704 164.034C435.523 165.196 433.089 165.803 430.617 165.803H341.524C339.053 165.803 336.619 165.195 334.437 164.033C332.256 162.872 330.394 161.191 329.015 159.14C327.636 157.09 326.783 154.731 326.531 152.273C326.279 149.815 326.635 147.333 327.569 145.045H308.609C300.194 145.045 292.125 148.386 286.175 154.334C280.225 160.282 276.882 168.349 276.882 176.761V578.725C276.882 587.136 280.225 595.203 286.175 601.151C292.125 607.099 300.194 610.44 308.609 610.44H464.872C473.286 610.44 481.356 607.099 487.306 601.151C493.256 595.203 496.599 587.136 496.599 578.725V578.725V176.76C496.599 168.348 493.256 160.282 487.306 154.334C481.356 148.386 473.286 145.045 464.872 145.045V145.045Z" fill="white"/>
<path d="M366.828 305.167C366.828 302.357 367.568 299.597 368.974 297.164C370.379 294.731 372.401 292.711 374.836 291.308C372.403 289.903 369.642 289.163 366.831 289.162C364.021 289.162 361.26 289.901 358.826 291.306C356.392 292.71 354.371 294.731 352.965 297.164C351.56 299.597 350.82 302.357 350.82 305.166C350.82 307.976 351.56 310.735 352.965 313.168C354.371 315.601 356.392 317.622 358.826 319.026C361.26 320.431 364.021 321.17 366.831 321.17C369.642 321.17 372.403 320.43 374.836 319.025C372.402 317.621 370.38 315.602 368.974 313.169C367.568 310.736 366.828 307.976 366.828 305.167V305.167Z" fill="#CCCCCC"/>
<path d="M386.954 305.167C386.954 302.357 387.694 299.597 389.099 297.164C390.505 294.731 392.527 292.711 394.962 291.308C392.529 289.903 389.768 289.163 386.957 289.162C384.147 289.162 381.386 289.901 378.952 291.306C376.518 292.71 374.497 294.731 373.091 297.164C371.686 299.597 370.946 302.357 370.946 305.166C370.946 307.976 371.686 310.735 373.091 313.168C374.497 315.601 376.518 317.622 378.952 319.026C381.386 320.431 384.147 321.17 386.957 321.17C389.768 321.17 392.529 320.43 394.962 319.025C392.527 317.621 390.505 315.602 389.1 313.169C387.694 310.736 386.954 307.976 386.954 305.167V305.167Z" fill="#CCCCCC"/>
<path d="M406.623 321.17C415.465 321.17 422.633 314.005 422.633 305.166C422.633 296.328 415.465 289.163 406.623 289.163C397.782 289.163 390.614 296.328 390.614 305.166C390.614 314.005 397.782 321.17 406.623 321.17Z" fill="#006EAC"/>
<path d="M433.378 355.153H340.073C339.184 355.151 338.333 354.798 337.705 354.17C337.077 353.542 336.723 352.691 336.722 351.803V258.53C336.723 257.642 337.077 256.79 337.705 256.162C338.333 255.535 339.184 255.181 340.073 255.18H433.378C434.267 255.181 435.118 255.535 435.746 256.162C436.375 256.79 436.728 257.642 436.729 258.53V351.803C436.728 352.691 436.375 353.542 435.746 354.17C435.118 354.798 434.267 355.151 433.378 355.153V355.153ZM340.073 256.521C339.54 256.521 339.029 256.733 338.652 257.11C338.275 257.487 338.063 257.998 338.062 258.53V351.804C338.063 352.337 338.275 352.847 338.652 353.224C339.029 353.601 339.54 353.813 340.073 353.813H433.378C433.911 353.813 434.422 353.601 434.799 353.224C435.176 352.847 435.388 352.337 435.389 351.804V258.53C435.388 257.998 435.176 257.487 434.799 257.11C434.422 256.733 433.911 256.521 433.378 256.521H340.073Z" fill="#CCCCCC"/>
<path d="M454.212 426.651H311.109V427.991H454.212V426.651Z" fill="#CCCCCC"/>
<path d="M315.629 418.286C318.125 418.286 320.148 416.263 320.148 413.768C320.148 411.273 318.125 409.25 315.629 409.25C313.133 409.25 311.109 411.273 311.109 413.768C311.109 416.263 313.133 418.286 315.629 418.286Z" fill="#006EAC"/>
<path d="M454.212 471.826H311.109V473.165H454.212V471.826Z" fill="#CCCCCC"/>
<path d="M315.629 463.461C318.125 463.461 320.148 461.438 320.148 458.943C320.148 456.448 318.125 454.426 315.629 454.426C313.133 454.426 311.109 456.448 311.109 458.943C311.109 461.438 313.133 463.461 315.629 463.461Z" fill="#006EAC"/>
<path d="M451.594 523.268H406.369C405.588 523.267 404.839 522.957 404.287 522.405C403.734 521.852 403.424 521.104 403.423 520.323V504.477C403.424 503.696 403.734 502.948 404.287 502.396C404.839 501.843 405.588 501.533 406.369 501.532H451.594C452.375 501.533 453.124 501.843 453.676 502.396C454.229 502.948 454.539 503.696 454.54 504.477V520.323C454.539 521.104 454.229 521.852 453.676 522.405C453.124 522.957 452.375 523.267 451.594 523.268V523.268Z" fill="#27AE60"/>
<path d="M330.37 418.286C332.866 418.286 334.89 416.263 334.89 413.768C334.89 411.273 332.866 409.25 330.37 409.25C327.874 409.25 325.851 411.273 325.851 413.768C325.851 416.263 327.874 418.286 330.37 418.286Z" fill="#006EAC"/>
<path d="M345.112 418.286C347.608 418.286 349.631 416.263 349.631 413.768C349.631 411.273 347.608 409.25 345.112 409.25C342.616 409.25 340.593 411.273 340.593 413.768C340.593 416.263 342.616 418.286 345.112 418.286Z" fill="#006EAC"/>
<path d="M330.37 463.461C332.866 463.461 334.89 461.438 334.89 458.943C334.89 456.448 332.866 454.426 330.37 454.426C327.874 454.426 325.851 456.448 325.851 458.943C325.851 461.438 327.874 463.461 330.37 463.461Z" fill="#006EAC"/>
<path d="M345.112 463.461C347.608 463.461 349.631 461.438 349.631 458.943C349.631 456.448 347.608 454.426 345.112 454.426C342.616 454.426 340.593 456.448 340.593 458.943C340.593 461.438 342.616 463.461 345.112 463.461Z" fill="#006EAC"/>
<path d="M653.888 623H183.767C182.761 623 181.945 622.643 181.945 622.203C181.945 621.763 182.761 621.405 183.767 621.405H653.888C654.894 621.405 655.71 621.762 655.71 622.203C655.71 622.643 654.894 623 653.888 623Z" fill="#3F3D56"/>
<path d="M537.738 454.378C538.059 454.524 538.368 454.697 538.662 454.893L568.03 442.363L569.078 434.629L580.813 434.557L580.12 452.294L541.357 462.542C541.275 462.811 541.178 463.075 541.064 463.333C540.503 464.528 539.602 465.532 538.473 466.217C537.344 466.902 536.038 467.238 534.719 467.183C533.399 467.129 532.125 466.686 531.057 465.91C529.988 465.134 529.173 464.059 528.713 462.822C528.254 461.584 528.17 460.238 528.473 458.953C528.776 457.668 529.452 456.501 530.416 455.599C531.381 454.697 532.59 454.1 533.892 453.882C535.195 453.665 536.533 453.837 537.738 454.378V454.378Z" fill="#FFB8B8"/>
<path d="M585.08 615.109H577.053L573.234 584.156L585.081 584.157L585.08 615.109Z" fill="#FFB8B8"/>
<path d="M571.318 612.816H586.8V622.56H561.571C561.571 619.976 562.598 617.497 564.426 615.67C566.254 613.842 568.733 612.816 571.318 612.816Z" fill="#2F2E41"/>
<path d="M616.3 612.841L608.311 613.628L601.475 583.199L613.265 582.038L616.3 612.841Z" fill="#FFB8B8"/>
<path d="M602.38 611.908L617.787 610.391L618.743 620.088L593.635 622.561C593.51 621.287 593.636 620.001 594.008 618.777C594.38 617.552 594.989 616.413 595.801 615.424C596.613 614.435 597.612 613.615 598.741 613.012C599.87 612.409 601.106 612.034 602.38 611.908Z" fill="#2F2E41"/>
<path d="M587.315 401.8C596.197 401.8 603.397 394.602 603.397 385.723C603.397 376.844 596.197 369.647 587.315 369.647C578.433 369.647 571.233 376.844 571.233 385.723C571.233 394.602 578.433 401.8 587.315 401.8Z" fill="#FFB8B8"/>
<path d="M575.259 608.849C574.569 608.851 573.9 608.609 573.372 608.166C572.843 607.724 572.487 607.108 572.368 606.429C568.213 583.372 554.631 507.981 554.306 505.893C554.299 505.845 554.296 505.796 554.296 505.748V500.127C554.296 499.922 554.36 499.722 554.479 499.556L556.273 497.044C556.359 496.923 556.47 496.823 556.6 496.752C556.73 496.681 556.874 496.641 557.022 496.635C567.251 496.155 600.751 494.75 602.369 496.771C603.995 498.803 603.421 504.958 603.289 506.171L603.295 506.298L618.345 602.513C618.463 603.281 618.274 604.064 617.819 604.693C617.364 605.322 616.679 605.746 615.913 605.874L606.513 607.422C605.813 607.535 605.096 607.392 604.492 607.021C603.888 606.649 603.437 606.074 603.222 605.398C600.315 596.111 590.566 564.87 587.187 552.781C587.166 552.704 587.118 552.638 587.051 552.595C586.985 552.551 586.905 552.533 586.826 552.544C586.748 552.555 586.676 552.595 586.624 552.655C586.572 552.715 586.544 552.792 586.545 552.872C586.714 564.395 587.122 593.796 587.263 603.951L587.278 605.045C587.284 605.785 587.012 606.501 586.516 607.051C586.02 607.6 585.336 607.944 584.598 608.014L575.534 608.837C575.442 608.845 575.349 608.849 575.259 608.849Z" fill="#2F2E41"/>
<path d="M577.108 408.121C574.302 409.789 572.622 412.854 571.659 415.972C569.874 421.746 568.801 427.716 568.461 433.75L567.442 451.815L554.834 499.709C565.762 508.951 572.065 506.851 586.775 499.291C601.484 491.73 603.165 501.811 603.165 501.811L606.107 461.06L610.309 416.53C609.366 415.394 608.298 414.368 607.126 413.47C603.242 410.45 598.722 408.352 593.908 407.332C589.094 406.312 584.112 406.397 579.336 407.582L577.108 408.121Z" fill="#8B8F92"/>
<path d="M573.013 464.05C573.352 464.178 573.681 464.332 573.996 464.511L603.034 449.982L603.516 442.11L615.494 441.285L616.136 459.228L577.33 472.057C577.013 473.415 576.29 474.645 575.257 475.583C574.224 476.521 572.93 477.122 571.546 477.306C570.163 477.491 568.756 477.25 567.513 476.616C566.27 475.982 565.25 474.984 564.588 473.756C563.926 472.528 563.653 471.128 563.807 469.741C563.96 468.355 564.532 467.048 565.447 465.994C566.361 464.94 567.575 464.19 568.927 463.843C570.278 463.496 571.704 463.568 573.013 464.05Z" fill="#FFB8B8"/>
<path d="M610.099 416.733C617.244 419.254 618.502 446.564 618.502 446.564C610.097 441.942 600.011 449.505 600.011 449.505C600.011 449.505 597.909 442.362 595.388 433.12C594.626 430.52 594.535 427.77 595.123 425.126C595.711 422.481 596.958 420.028 598.749 417.996C598.749 417.996 602.955 414.211 610.099 416.733Z" fill="#879BA6"/>
<path d="M601.735 389.975C599.731 388.372 596.997 391.285 596.997 391.285L595.394 376.863C595.394 376.863 585.376 378.063 578.964 376.462C572.552 374.862 571.55 382.272 571.55 382.272C571.219 379.279 571.152 376.263 571.35 373.258C571.75 369.652 576.96 366.047 586.177 363.643C595.394 361.239 600.203 371.655 600.203 371.655C606.616 374.86 603.738 391.577 601.735 389.975Z" fill="#2F2E41"/>
</g>
<defs>
<linearGradient id="paint0_linear" x1="418.5" y1="0.0686035" x2="418.933" y2="645.068" gradientUnits="userSpaceOnUse">
<stop stop-color="#E4F3FF"/>
<stop offset="1" stop-color="white"/>
</linearGradient>
<clipPath id="clip0">
<rect width="487.71" height="489" fill="white" transform="translate(168 134)"/>
</clipPath>
</defs>
</svg>
