<svg width="150" height="150" viewBox="0 0 150 150" fill="none" xmlns="http://www.w3.org/2000/svg">
<g filter="url(#filter0_d)">
<circle cx="75" cy="70" r="50" fill="#FAFAFA"/>
</g>
<path d="M54.125 79.375H97.875V82.5H54.125V79.375Z" fill="#2F80ED"/>
<path d="M54.125 85.625H97.875V88.75H54.125V85.625Z" fill="#2F80ED"/>
<path d="M88.5 60.625C87.8819 60.625 87.2777 60.8083 86.7638 61.1517C86.2499 61.495 85.8494 61.9831 85.6129 62.5541C85.3764 63.1251 85.3145 63.7535 85.435 64.3597C85.5556 64.9658 85.8533 65.5227 86.2903 65.9597C86.7273 66.3967 87.2842 66.6944 87.8903 66.815C88.4965 66.9355 89.1249 66.8736 89.6959 66.6371C90.2669 66.4006 90.755 66.0001 91.0983 65.4862C91.4417 64.9723 91.625 64.3681 91.625 63.75C91.625 62.9212 91.2958 62.1263 90.7097 61.5403C90.1237 60.9542 89.3288 60.625 88.5 60.625Z" fill="#2F80ED"/>
<path d="M76 70C74.7639 70 73.5555 69.6334 72.5277 68.9467C71.4999 68.2599 70.6988 67.2838 70.2258 66.1418C69.7527 64.9997 69.6289 63.7431 69.8701 62.5307C70.1113 61.3183 70.7065 60.2047 71.5806 59.3306C72.4547 58.4565 73.5683 57.8613 74.7807 57.6201C75.9931 57.3789 77.2497 57.5027 78.3918 57.9758C79.5338 58.4488 80.5099 59.2499 81.1967 60.2777C81.8834 61.3055 82.25 62.5139 82.25 63.75C82.2479 65.407 81.5888 66.9955 80.4171 68.1671C79.2455 69.3388 77.657 69.9979 76 70ZM76 60.625C75.3819 60.625 74.7778 60.8083 74.2638 61.1517C73.7499 61.495 73.3494 61.9831 73.1129 62.5541C72.8764 63.1251 72.8145 63.7535 72.935 64.3597C73.0556 64.9659 73.3533 65.5227 73.7903 65.9597C74.2273 66.3968 74.7842 66.6944 75.3903 66.815C75.9965 66.9355 76.6249 66.8737 77.1959 66.6371C77.7669 66.4006 78.255 66.0001 78.5983 65.4862C78.9417 64.9723 79.125 64.3681 79.125 63.75C79.1242 62.9215 78.7947 62.1271 78.2088 61.5412C77.6229 60.9553 76.8286 60.6258 76 60.625Z" fill="#2F80ED"/>
<path d="M63.5 60.625C62.8819 60.625 62.2777 60.8083 61.7638 61.1517C61.2499 61.495 60.8494 61.9831 60.6129 62.5541C60.3764 63.1251 60.3145 63.7535 60.435 64.3597C60.5556 64.9658 60.8533 65.5227 61.2903 65.9597C61.7273 66.3967 62.2842 66.6944 62.8903 66.815C63.4965 66.9355 64.1249 66.8736 64.6959 66.6371C65.2669 66.4006 65.755 66.0001 66.0983 65.4862C66.4417 64.9723 66.625 64.3681 66.625 63.75C66.625 62.9212 66.2958 62.1263 65.7097 61.5403C65.1237 60.9542 64.3288 60.625 63.5 60.625Z" fill="#2F80ED"/>
<path d="M94.75 76.25H57.25C56.4218 76.2479 55.6282 75.918 55.0426 75.3324C54.457 74.7468 54.1271 73.9532 54.125 73.125V54.375C54.1271 53.5468 54.457 52.7532 55.0426 52.1676C55.6282 51.582 56.4218 51.2521 57.25 51.25H94.75C95.5782 51.2521 96.3718 51.582 96.9574 52.1676C97.543 52.7532 97.8729 53.5468 97.875 54.375V73.125C97.8738 73.9534 97.5441 74.7476 96.9583 75.3333C96.3726 75.9191 95.5784 76.2488 94.75 76.25ZM94.75 54.375H57.25V73.125H94.75V54.375Z" fill="#2F80ED"/>
<defs>
<filter id="filter0_d" x="0" y="0" width="150" height="150" filterUnits="userSpaceOnUse" color-interpolation-filters="sRGB">
<feFlood flood-opacity="0" result="BackgroundImageFix"/>
<feColorMatrix in="SourceAlpha" type="matrix" values="0 0 0 0 0 0 0 0 0 0 0 0 0 0 0 0 0 0 127 0"/>
<feOffset dy="5"/>
<feGaussianBlur stdDeviation="12.5"/>
<feColorMatrix type="matrix" values="0 0 0 0 0.0572916 0 0 0 0 0.519156 0 0 0 0 0.625 0 0 0 0.2 0"/>
<feBlend mode="normal" in2="BackgroundImageFix" result="effect1_dropShadow"/>
<feBlend mode="normal" in="SourceGraphic" in2="effect1_dropShadow" result="shape"/>
</filter>
</defs>
</svg>
