<svg width="150" height="150" viewBox="0 0 150 150" fill="none" xmlns="http://www.w3.org/2000/svg">
<g filter="url(#filter0_d)">
<circle cx="75" cy="70" r="50" fill="#FAFAFA"/>
</g>
<g clip-path="url(#clip0)">
<path d="M73.5625 73.125H67.3125C66.8981 73.125 66.5007 72.9604 66.2076 72.6674C65.9146 72.3743 65.75 71.9769 65.75 71.5625V65.3125C65.75 64.8981 65.9146 64.5007 66.2076 64.2076C66.5007 63.9146 66.8981 63.75 67.3125 63.75H73.5625C73.9769 63.75 74.3743 63.9146 74.6674 64.2076C74.9604 64.5007 75.125 64.8981 75.125 65.3125V68.9375C76.21 67.6797 77.7617 66.875 79.5 66.875H92.873L93.5225 66.1396C93.734 65.876 93.8573 65.5524 93.875 65.2148C93.8529 64.8242 93.6878 64.4554 93.4111 64.1787L87.625 59.0625V49.6875C87.625 49.2731 87.4604 48.8757 87.1674 48.5826C86.8743 48.2896 86.4769 48.125 86.0625 48.125H82.9375C82.5231 48.125 82.1257 48.2896 81.8326 48.5826C81.5396 48.8757 81.375 49.2731 81.375 49.6875V53.5254L72.7324 45.8711C72.1953 45.3906 71.165 45 70.4424 45C69.7197 45 68.6914 45.3906 68.1504 45.8711L47.4668 64.1816C47.1885 64.4563 47.0222 64.8245 47 65.2148C47.0169 65.5492 47.1381 65.8699 47.3467 66.1318L49.1816 68.2129C49.4586 68.4924 49.8297 68.6588 50.2227 68.6797C50.5544 68.6631 50.873 68.5444 51.1348 68.3398L53.25 66.4727V82.5C53.25 83.3288 53.5792 84.1237 54.1653 84.7097C54.7513 85.2958 55.5462 85.625 56.375 85.625H73.5625V73.125ZM108.458 88.75H104.812V73.125C104.812 71.3994 103.554 70 102 70H79.5C77.9463 70 76.6875 71.3994 76.6875 73.125V88.75H73.042C72.7656 88.75 72.5006 88.8598 72.3052 89.0552C72.1098 89.2506 72 89.5156 72 89.792V90.833C72.0038 91.9358 72.4432 92.9924 73.2223 93.7729C74.0015 94.5533 75.0574 94.9943 76.1602 95H105.34C106.443 94.9943 107.499 94.5533 108.278 93.7729C109.057 92.9924 109.496 91.9358 109.5 90.833V89.792C109.5 89.5156 109.39 89.2506 109.195 89.0552C108.999 88.8598 108.734 88.75 108.458 88.75ZM100.125 88.75H81.375V74.6875H100.125V88.75Z" fill="#2F80ED"/>
</g>
<defs>
<filter id="filter0_d" x="0" y="0" width="150" height="150" filterUnits="userSpaceOnUse" color-interpolation-filters="sRGB">
<feFlood flood-opacity="0" result="BackgroundImageFix"/>
<feColorMatrix in="SourceAlpha" type="matrix" values="0 0 0 0 0 0 0 0 0 0 0 0 0 0 0 0 0 0 127 0"/>
<feOffset dy="5"/>
<feGaussianBlur stdDeviation="12.5"/>
<feColorMatrix type="matrix" values="0 0 0 0 0.0572916 0 0 0 0 0.519156 0 0 0 0 0.625 0 0 0 0.2 0"/>
<feBlend mode="normal" in2="BackgroundImageFix" result="effect1_dropShadow"/>
<feBlend mode="normal" in="SourceGraphic" in2="effect1_dropShadow" result="shape"/>
</filter>
<clipPath id="clip0">
<rect width="62.5" height="50" fill="white" transform="translate(47 45)"/>
</clipPath>
</defs>
</svg>
