<svg width="18" height="19" viewBox="0 0 18 19" fill="none" xmlns="http://www.w3.org/2000/svg">
<path d="M17.28 0.977539H0.72C0.32175 0.977539 0 1.29284 0 1.68311V17.9111C0 18.3014 0.32175 18.6167 0.72 18.6167H17.28C17.6783 18.6167 18 18.3014 18 17.9111V1.68311C18 1.29284 17.6783 0.977539 17.28 0.977539ZM15.201 6.12597H13.7633C12.636 6.12597 12.4178 6.65073 12.4178 7.42245V9.12242H15.1088L14.7578 11.7837H12.4178V18.6167H9.612V11.7859H7.26525V9.12242H9.612V7.16006C9.612 4.88241 11.0318 3.64105 13.1063 3.64105C14.1008 3.64105 14.9535 3.71381 15.2033 3.74689V6.12597H15.201Z" fill="#163F5B"/>
</svg>
