<svg width="323" height="371" viewBox="0 0 323 371" fill="none" xmlns="http://www.w3.org/2000/svg">
<g clip-path="url(#clip0)">
<path d="M195.803 37.3527C182.501 37.3527 171.718 29.8861 171.718 20.6755C171.718 11.4649 182.501 3.99823 195.803 3.99823C209.105 3.99823 219.888 11.4649 219.888 20.6755C219.888 29.8861 209.105 37.3527 195.803 37.3527Z" fill="#3F3D56"/>
<path d="M147.634 107.909C128.479 107.909 112.951 94.1241 112.951 77.1195C112.951 60.1149 128.479 46.3299 147.634 46.3299C166.788 46.3299 182.316 60.1149 182.316 77.1195C182.316 94.1241 166.788 107.909 147.634 107.909Z" fill="#3F3D56"/>
<path d="M37.5716 357.858C32.7846 357.858 28.904 354.413 28.904 350.163C28.904 345.913 32.7846 342.468 37.5716 342.468C42.3585 342.468 46.2391 345.913 46.2391 350.163C46.2391 354.413 42.3585 357.858 37.5716 357.858Z" fill="#3F3D56"/>
<path d="M82.8456 357.858C78.0587 357.858 74.1781 354.413 74.1781 350.163C74.1781 345.913 78.0587 342.468 82.8456 342.468C87.6326 342.468 91.5132 345.913 91.5132 350.163C91.5132 354.413 87.6326 357.858 82.8456 357.858Z" fill="#3F3D56"/>
<path d="M69.3587 164.574H73.213V259.082H69.3587V164.574Z" fill="#3F3D56"/>
<path d="M48.6488 164.574H52.5031V259.082H48.6488V164.574Z" fill="#3F3D56"/>
<path d="M72.2722 167.139L73.2373 164.574C73.2373 164.574 62.6396 153.458 47.708 162.419L48.6731 166.271H52.5274C52.5274 166.271 58.7853 161.61 69.383 166.934L72.2722 167.139Z" fill="#3F3D56"/>
<path d="M137.036 151.103H171.718V190.444H137.036V151.103Z" fill="#FBBEBE"/>
<path d="M112.951 139.981H123.549V158.798H112.951V139.981Z" fill="#FBBEBE"/>
<path d="M167.142 342.468L171.476 354.016C171.476 354.016 173.406 362.567 167.142 362.993C160.878 363.418 150.754 361.71 150.754 361.71C150.754 361.71 149.309 357.863 150.754 354.441C152.198 351.02 156.532 341.611 156.532 341.611L167.142 342.468Z" fill="#3C354C"/>
<path d="M134.39 342.894C134.39 342.894 141.133 357.863 135.834 360.428C130.535 362.993 123.306 360.854 117.528 362.993C111.75 365.132 95.853 360.002 95.853 360.002C95.853 360.002 93.9228 355.298 104.521 354.016C104.521 354.016 116.053 346.316 116.053 344.607C116.053 342.899 122.796 342.894 122.796 342.894H134.39Z" fill="#3C354C"/>
<path d="M135.834 172.274C135.834 172.274 175.33 179.543 180.143 177.404C184.956 175.265 189.776 206.501 189.776 206.501C189.776 206.501 191.706 225.318 184.962 250.547C178.219 275.775 184.962 288.18 184.962 288.18C184.962 288.18 183.997 312.126 176.768 323.248C169.539 334.369 169.545 344.629 169.545 344.629C169.545 344.629 155.585 345.911 155.093 342.915C155.093 342.915 160.878 330.942 159.913 319.826C158.948 308.71 162.802 287.323 162.802 287.323C162.802 287.323 156.538 260.381 157.503 250.143C158.468 239.904 154.128 218.07 151.725 221.918C149.321 225.765 143.051 244.582 143.051 248.434C143.051 252.287 140.623 277.936 139.197 279.65C137.77 281.363 138.238 286.493 138.717 289.058C139.197 291.623 139.197 310.865 136.793 321.13C134.39 331.395 136.308 342.937 135.828 344.651C135.349 346.364 121.376 345.076 120.897 342.08C120.897 342.08 118.966 323.695 118.001 321.13C117.036 318.565 116.581 286.019 116.581 286.019C116.581 286.019 115.622 260.79 114.657 258.225C113.692 255.66 112.229 200.493 118.511 194.103C124.793 187.712 122.365 171.439 122.365 171.439L135.834 172.274Z" fill="#3F3D56"/>
<path d="M168.301 97.7787C170.086 100.764 171.882 103.776 172.999 107.015C174.116 110.253 174.505 113.761 173.454 117.015C172.703 119.048 171.659 120.986 170.347 122.781C169.303 124.496 167.98 126.065 166.42 127.437C162.778 130.39 157.485 130.982 152.569 131.446C151.725 131.571 150.863 131.558 150.025 131.408C149.353 131.235 148.732 130.933 148.204 130.524C146.05 128.908 145.072 126.44 144.283 124.058C142.407 118.394 141.063 112.601 140.265 106.74C140.08 105.813 140.08 104.865 140.265 103.938C140.69 102.321 142.147 101.066 143.203 99.6755C144.468 98.0142 145.191 96.0747 145.291 94.0715C145.333 93.0962 145.291 92.0185 145.983 91.2749C146.443 90.8701 147.002 90.5641 147.616 90.3804C150.487 89.3027 153.352 88.225 156.229 87.1904C157.965 86.5546 161.084 84.8626 162.905 86.1127C164.465 87.1904 163.713 89.6907 164.38 91.1887C165.406 93.4626 167.014 95.6234 168.301 97.7787Z" fill="#FBBEBE"/>
<path opacity="0.1" d="M168.301 97.7787C170.086 100.764 171.882 103.776 172.999 107.015C174.116 110.253 174.505 113.761 173.454 117.015C172.703 119.048 171.659 120.986 170.347 122.781C169.303 124.496 167.98 126.065 166.42 127.437C162.778 130.39 157.485 130.982 152.569 131.446C151.725 131.571 150.863 131.558 150.025 131.408C149.353 131.235 148.732 130.933 148.204 130.524C146.05 128.908 145.072 126.44 144.283 124.058C142.407 118.394 141.063 112.601 140.265 106.74C140.08 105.813 140.08 104.865 140.265 103.938C140.69 102.321 142.147 101.066 143.203 99.6755C144.468 98.0142 145.191 96.0747 145.291 94.0715C145.333 93.0962 145.291 92.0185 145.983 91.2749C146.443 90.8701 147.002 90.5641 147.616 90.3804C150.487 89.3027 153.352 88.225 156.229 87.1904C157.965 86.5546 161.084 84.8626 162.905 86.1127C164.465 87.1904 163.713 89.6907 164.38 91.1887C165.406 93.4626 167.014 95.6234 168.301 97.7787Z" fill="black"/>
<path d="M149.321 98.7217C140.009 98.7217 132.459 92.0198 132.459 83.7526C132.459 75.4854 140.009 68.7835 149.321 68.7835C158.634 68.7835 166.183 75.4854 166.183 83.7526C166.183 92.0198 158.634 98.7217 149.321 98.7217Z" fill="#FBBEBE"/>
<path d="M143.403 121.504C146.596 122.523 149.892 123.401 153.285 123.509C155.826 123.531 158.362 123.291 160.841 122.792C165.963 121.888 170.994 120.613 175.882 118.982C176.926 120.809 177.205 122.894 177.296 124.942C177.557 131.133 176.167 137.276 175.633 143.457C174.96 151.313 175.633 159.342 173.357 166.95C173.226 165.657 172.659 164.429 171.73 163.426C170.957 162.686 170.032 162.083 169.005 161.648C164.411 159.54 159.121 158.955 154.086 159.999C151.166 160.614 148.065 161.761 145.297 160.732C143.646 160.112 142.45 158.808 141.534 157.44C139.978 154.97 138.867 152.299 138.244 149.524C136.423 142.39 136.18 135.013 135.962 127.695C135.901 125.739 134.954 119.925 136.781 118.492C138.062 117.495 138.438 118.918 139.361 119.661C140.561 120.502 141.934 121.128 143.403 121.504Z" fill="#F2F2F2"/>
<path d="M167.136 95.8066C168.259 95.0252 169.922 95.2677 171.16 95.9305C172.398 96.5933 173.4 97.5093 174.656 98.1128C178.14 99.7886 182.82 98.5601 186.128 100.511C189.236 102.348 189.77 106.131 190.013 109.439C190.62 117.845 191.142 126.311 193.418 134.49C194.025 136.646 194.753 138.855 194.522 141.075C194.341 142.343 194.003 143.59 193.515 144.793L190.528 153.075C189.145 156.922 187.742 160.829 187.597 164.865C187.451 168.901 188.519 172.737 189.582 176.59C191.681 184.18 193.047 191.916 193.667 199.712C193.855 202.293 193.934 204.987 192.756 207.353C191.542 209.826 189.078 211.664 186.48 213.059C183.882 214.455 181.06 215.533 178.516 217.014C173.412 219.994 169.315 224.687 163.342 225.911C160.605 226.45 157.74 226.234 154.984 225.76C154.984 225.76 156.544 162.866 160.884 153.883C165.224 144.901 169.072 105.991 169.072 104.708C169.072 103.426 167.136 95.8066 167.136 95.8066Z" fill="#006EAC"/>
<path d="M143.694 97.865C143.694 97.865 120.903 97.865 117.528 108.556C114.153 119.246 127.161 136.78 127.161 136.78C127.161 136.78 121.862 171.417 119.458 174.839C117.054 178.261 118.007 185.077 118.007 185.077C116.262 189.769 115.932 194.785 117.048 199.626C118.972 207.321 126.202 221.007 126.202 221.007C126.202 221.007 135.834 221.007 138.244 226.137C140.654 231.267 141.133 203.899 141.133 203.899C141.133 203.899 149.801 153.867 149.321 150.877C148.842 147.886 146.432 123.078 145.467 116.234C144.502 109.391 142.402 100.43 143.694 97.865Z" fill="#006EAC"/>
<path d="M126.202 104.708C126.202 104.708 115.118 107.699 115.118 111.121C115.118 114.542 111.725 132.928 111.725 138.914C111.725 144.901 113.17 145.757 111.725 147.897C110.281 150.036 127.136 149.179 127.136 149.179L130.202 124.807L126.202 104.708Z" fill="#006EAC"/>
<path d="M191.712 135.498C191.712 135.498 170.031 136.78 166.177 134.21C162.322 131.64 145.946 137.632 144.502 141.053C143.057 144.475 167.627 144.901 171.476 144.901C175.324 144.901 193.636 150.036 193.636 150.036L191.712 135.498Z" fill="#A0616A"/>
<path d="M236.343 334.693C236.343 334.693 246.449 357.324 241.198 360.018C235.948 362.713 180.586 360.794 180.586 360.794C180.586 360.794 171.366 355.729 181.903 352.216C181.903 352.216 190.692 351.828 196.398 348.708C202.103 345.588 208.701 339.742 208.701 339.742C208.701 339.742 209.138 331.163 212.653 333.114C213.704 333.729 214.598 334.532 215.279 335.472C215.959 336.412 216.411 337.468 216.604 338.572L236.343 334.693Z" fill="#3F3D56"/>
<path opacity="0.1" d="M236.343 334.693C236.343 334.693 246.449 357.324 241.198 360.018C235.948 362.713 180.586 360.794 180.586 360.794C180.586 360.794 171.366 355.729 181.903 352.216C181.903 352.216 190.692 351.828 196.398 348.708C202.103 345.588 208.701 339.742 208.701 339.742C208.701 339.742 209.138 331.163 212.653 333.114C213.704 333.729 214.598 334.532 215.279 335.472C215.959 336.412 216.411 337.468 216.604 338.572L236.343 334.693Z" fill="black"/>
<path d="M251.936 341.611C251.936 341.611 263.013 366.398 257.235 369.405C251.456 372.412 190.759 370.262 190.759 370.262C190.759 370.262 180.641 364.706 192.204 360.854C192.204 360.854 201.836 360.428 208.1 357.006C214.364 353.585 221.587 347.156 221.587 347.156C221.587 347.156 222.067 337.748 225.921 339.887C227.074 340.561 228.056 341.442 228.802 342.473C229.549 343.504 230.044 344.662 230.255 345.874L251.936 341.611Z" fill="#3F3D56"/>
<path d="M195.081 184.247L201.824 238.132C201.824 238.132 204.252 263.791 211.457 269.347C211.457 269.347 211.457 277.473 213.885 280.038L217.259 313.823C217.259 313.823 212.44 326.217 212.92 328.372C213.399 330.527 210.995 337.349 211.475 338.206C211.954 339.063 234.601 338.206 234.601 338.206L229.781 269.358L214.85 173.573L195.081 184.247Z" fill="#3C354C"/>
<path opacity="0.1" d="M195.081 184.247L201.824 238.132C201.824 238.132 204.252 263.791 211.457 269.347C211.457 269.347 211.457 277.473 213.885 280.038L217.259 313.823C217.259 313.823 212.44 326.217 212.92 328.372C213.399 330.527 210.995 337.349 211.475 338.206C211.954 339.063 234.601 338.206 234.601 338.206L229.781 269.358L214.85 173.573L195.081 184.247Z" fill="black"/>
<path d="M207.123 182.534C207.123 182.534 212.422 226.579 214.832 235.987C216.347 242.183 217.313 248.474 217.721 254.804C217.721 254.804 218.2 268.49 222.54 272.338C223.807 273.451 224.802 274.784 225.464 276.253C226.126 277.722 226.44 279.297 226.388 280.878C226.388 280.878 230.728 324.067 228.319 329.202C225.909 334.337 223.499 338.61 225.891 342.026C228.282 345.443 254.795 345.448 254.795 342.883C254.795 340.318 254.795 338.179 256.239 336.897C257.684 335.614 256.239 327.488 256.239 327.488C256.239 327.488 262.018 289.43 256.719 278.313C251.42 267.197 249.01 236.822 249.01 236.822C249.01 236.822 252.864 202.185 257.684 196.624C262.503 191.064 256.719 171.396 256.719 171.396L207.123 182.534Z" fill="#3C354C"/>
<path d="M220.683 45.7533C220.124 46.8849 218.783 47.5154 217.563 48.1135C210.492 51.5729 204.574 56.5895 198.747 61.5469C200.201 57.1667 199.89 52.4735 197.867 48.2751C197.175 46.8472 196.258 45.3061 196.756 43.8135C197.126 42.7358 198.176 41.9167 199.184 41.2163C201.563 39.5827 204.05 38.0767 206.631 36.7061C208.452 35.747 212.143 33.1982 214.213 33.4731C214.322 35.9571 214.376 38.1772 215.603 40.478C215.906 41.0492 220.47 46.1844 220.683 45.7533Z" fill="#A0616A"/>
<path d="M196.046 51.2495C185.138 51.2495 176.295 43.3993 176.295 33.7155C176.295 24.0318 185.138 16.1815 196.046 16.1815C206.954 16.1815 215.797 24.0318 215.797 33.7155C215.797 43.3993 206.954 51.2495 196.046 51.2495Z" fill="#A0616A"/>
<path d="M195.081 75.2012C195.081 75.2012 191.712 60.2321 201.345 55.1023C210.977 49.9725 222.055 43.9859 222.055 43.9859C222.055 43.9859 225.429 43.5548 226.874 49.9725C226.874 49.9725 254.327 54.6766 257.223 77.7661C260.118 100.856 255.292 134.641 255.292 134.641C255.292 134.641 259.626 164.148 264.925 179.969C264.925 179.969 269.265 183.39 249.994 178.261C230.722 173.131 197.011 192.809 197.011 192.809C197.011 192.809 193.636 189.813 193.636 187.674C193.636 185.535 189.782 173.125 189.782 173.125C189.782 173.125 186.413 120.529 184.969 114.542C183.524 108.556 190.747 76.0579 195.081 75.2012Z" fill="#3F3D56"/>
<path d="M224.944 104.708C224.944 104.708 198.455 91.0217 203.754 73.4876C209.053 55.9536 220.61 50.3981 220.61 50.3981C220.61 50.3981 239.396 44.8373 255.292 62.7916L254.327 70.9174C254.327 70.9174 236.986 39.7021 218.2 59.3699C199.414 79.0377 224.944 104.708 224.944 104.708Z" fill="#006EAC"/>
<path d="M253.368 63.6538V133.774L258.291 157.693L260.591 168.842H277.429L301.028 161.142V109.412C301.028 109.412 281.283 74.7701 275.019 68.3579C268.755 61.9456 253.368 63.6538 253.368 63.6538Z" fill="#006EAC"/>
<path opacity="0.1" d="M258.297 157.698L260.591 168.847H277.453L301.052 161.152L258.297 157.698Z" fill="black"/>
<path d="M259.146 142.762L217.721 97.8597L254.333 144.475L258.187 145.326L259.146 142.762Z" fill="#006EAC"/>
<path d="M200.701 35.526C199.578 34.8525 198.17 34.7285 196.823 34.61C195.475 34.4914 194.067 34.3298 192.993 33.597C191.129 32.3253 190.99 29.8682 189.624 28.1708C187.651 25.7083 183.712 25.4119 180.307 25.5305C178.225 25.6059 175.985 25.719 174.237 24.7222C172.489 23.7253 171.627 21.7585 171.02 19.9426C170.298 17.7873 169.837 15.1577 171.627 13.5627C172.841 12.4527 174.808 12.2318 176.18 11.2565C177.551 10.2811 178.189 8.60534 178.96 7.14507C179.84 5.36122 181.231 3.81351 182.996 2.6565C185.582 1.03996 188.884 0.705878 192.034 0.73282C195.184 0.759763 198.346 1.13156 201.472 0.786704C204.034 0.506505 206.589 -0.247875 209.138 0.0862084C212.392 0.511896 215.08 2.69422 216.689 5.24295C218.297 7.79169 218.977 10.7014 219.645 13.5573L221.466 21.3329C222.024 23.7469 222.589 26.2202 222.158 28.6504C221.259 33.694 216.234 37.703 215.888 42.795C215.557 41.3882 214.839 40.0763 213.796 38.9769C212.754 37.8775 211.42 37.025 209.915 36.4959C209.539 36.3327 209.111 36.2853 208.701 36.3612C208.203 36.5067 207.912 36.9486 207.596 37.3204C206.771 38.2957 204.179 39.7721 202.741 39.0824C201.369 38.4627 202.352 36.5229 200.701 35.526Z" fill="#3F3D56"/>
<path d="M74.6576 253.095C74.6576 253.095 87.6651 253.521 89.5892 266.777C91.5133 280.032 89.5892 341.611 89.5892 341.611C89.5892 341.611 74.6577 351.445 56.3514 350.163C38.0451 348.88 8.66763 344.176 8.66763 344.176V271.971C8.66763 261.194 18.7919 252.406 30.9192 253.025C31.2045 253.025 31.5262 253.058 31.7872 253.085L74.6576 253.095Z" fill="#3C354C"/>
<path d="M55.8717 359.997C51.0848 359.997 47.2042 356.552 47.2042 352.302C47.2042 348.052 51.0848 344.607 55.8717 344.607C60.6587 344.607 64.5393 348.052 64.5393 352.302C64.5393 356.552 60.6587 359.997 55.8717 359.997Z" fill="#3F3D56"/>
<path d="M8.66752 356.575C3.88056 356.575 -6.10352e-05 353.13 -6.10352e-05 348.881C-6.10352e-05 344.631 3.88056 341.186 8.66752 341.186C13.4545 341.186 17.3351 344.631 17.3351 348.881C17.3351 353.13 13.4545 356.575 8.66752 356.575Z" fill="#3F3D56"/>
<path d="M250.473 115.399C250.473 115.399 253.848 134.21 239.881 132.502C239.881 132.502 232.652 131.645 231.687 132.502C230.722 133.359 195.081 127.798 190.261 123.094C190.261 123.094 184.483 121.386 181.594 123.95C178.704 126.515 149.8 129.08 158.462 121.38C167.123 113.68 180.616 111.972 180.616 111.972L198.923 112.823C198.923 112.823 208.555 115.394 214.334 112.823C220.112 110.253 236.506 111.142 236.506 111.142L250.473 115.399Z" fill="#A0616A"/>
<path d="M230.728 55.959C230.728 55.959 252.403 58.1144 252.403 85.8919V121.38C252.403 121.38 240.361 116.676 237.951 117.102C235.541 117.527 225.909 111.541 225.909 111.541C225.909 111.541 214.832 88.4568 215.797 82.0445C216.762 75.6323 216.276 56.8104 230.728 55.959Z" fill="#3F3D56"/>
<path d="M131.5 124.802L153.175 138.489L139.689 139.771L120.903 125.659L131.5 124.802Z" fill="#3F3D56"/>
<path d="M114.639 145.332C114.639 145.332 109.34 159.881 116.563 164.148C123.786 168.416 135.834 149.179 135.834 149.179C135.834 149.179 148.842 135.498 140.168 132.502C131.494 129.506 127.956 142.551 127.956 142.551L116.581 151.318L114.639 145.332Z" fill="#FBBEBE"/>
<path d="M147.634 83.5371C136.994 83.5371 128.368 78.6542 128.368 72.6309C128.368 66.6075 136.994 61.7247 147.634 61.7247C158.274 61.7247 166.899 66.6075 166.899 72.6309C166.899 78.6542 158.274 83.5371 147.634 83.5371Z" fill="#3F3D56"/>
<path d="M144.265 58.7341C136.552 58.7341 130.299 53.183 130.299 46.3353C130.299 39.4876 136.552 33.9365 144.265 33.9365C151.978 33.9365 158.231 39.4876 158.231 46.3353C158.231 53.183 151.978 58.7341 144.265 58.7341Z" fill="#3F3D56"/>
<path d="M196.046 31.3662C185.805 31.3662 177.503 27.5376 177.503 22.8147C177.503 18.0919 185.805 14.2632 196.046 14.2632C206.287 14.2632 214.589 18.0919 214.589 22.8147C214.589 27.5376 206.287 31.3662 196.046 31.3662Z" fill="#3F3D56"/>
<path d="M213.387 38.6351C209.797 38.6351 206.886 32.2203 206.886 24.3073C206.886 16.3942 209.797 9.97937 213.387 9.97937C216.977 9.97937 219.888 16.3942 219.888 24.3073C219.888 32.2203 216.977 38.6351 213.387 38.6351Z" fill="#3F3D56"/>
<path d="M310.15 362.535C308.33 359.566 310.393 355.929 312.748 353.277C315.103 350.626 317.98 347.889 317.92 344.5C317.829 339.65 312.032 336.789 307.401 334.218C303.964 332.311 300.793 330.048 297.956 327.478C296.766 326.49 295.783 325.323 295.055 324.029C294.096 322.132 294.12 319.977 294.181 317.897C294.383 310.978 294.77 304.067 295.34 297.162" stroke="#3F3D56" stroke-width="4" stroke-miterlimit="10"/>
<path d="M286.533 296.78C286.598 295.513 287.021 294.281 287.763 293.198C288.506 292.115 289.544 291.215 290.782 290.583L292.688 293.934L292.627 289.882C294.355 289.432 296.199 289.48 297.893 290.02C299.588 290.56 301.046 291.564 302.056 292.888C303.066 294.211 303.577 295.785 303.514 297.382C303.452 298.98 302.819 300.518 301.708 301.776C300.597 303.034 299.064 303.946 297.331 304.38C295.599 304.815 293.755 304.749 292.067 304.193C290.379 303.637 288.933 302.62 287.938 301.287C286.944 299.955 286.452 298.376 286.533 296.78Z" fill="#57B894"/>
<path d="M301.708 347.97C302.601 349.507 304.063 350.725 305.848 351.42C307.632 352.115 309.632 352.243 311.511 351.785C313.39 351.326 315.035 350.309 316.169 348.902C317.303 347.495 317.859 345.785 317.741 344.058C317.624 342.331 316.842 340.692 315.526 339.416C314.21 338.14 312.44 337.305 310.512 337.05C308.585 336.794 306.617 337.135 304.939 338.015C303.261 338.894 301.974 340.259 301.295 341.881L306.618 345.723L300.761 344.516C300.759 345.718 301.084 346.903 301.708 347.97Z" fill="#57B894"/>
<path d="M305.956 333.286C307.074 333.335 308.192 333.187 309.246 332.851C310.299 332.514 311.268 331.997 312.095 331.327C312.922 330.658 313.593 329.85 314.067 328.95C314.542 328.049 314.811 327.075 314.86 326.082C314.928 324.899 314.676 323.718 314.126 322.639C313.616 321.628 312.863 320.729 311.919 320.004C310.975 319.28 309.864 318.748 308.663 318.447L308.706 321.566L306.782 318.177C305.663 318.129 304.546 318.277 303.492 318.613C302.439 318.949 301.47 319.467 300.643 320.136C299.815 320.806 299.145 321.614 298.671 322.514C298.196 323.414 297.926 324.389 297.877 325.381C297.828 326.254 297.951 327.128 298.242 327.963C298.754 329.447 299.77 330.755 301.151 331.707C302.531 332.66 304.209 333.211 305.956 333.286Z" fill="#57B894"/>
<path d="M285.252 321.071C286.56 321.113 287.861 320.887 289.054 320.41C290.247 319.933 291.3 319.218 292.131 318.32C292.961 317.423 293.547 316.367 293.843 315.235C294.138 314.104 294.135 312.927 293.834 311.796C293.533 310.666 292.942 309.612 292.107 308.718C291.272 307.824 290.216 307.113 289.02 306.64C287.825 306.168 286.523 305.947 285.215 305.994C283.908 306.042 282.631 306.357 281.483 306.915L282.988 310.579L279.893 307.939C278.641 308.944 277.755 310.257 277.348 311.711C276.94 313.165 277.03 314.694 277.605 316.103C278.18 317.511 279.214 318.736 280.576 319.621C281.938 320.506 283.566 321.01 285.252 321.071Z" fill="#57B894"/>
<path opacity="0.1" d="M287.68 298.795C289.641 298.989 291.559 299.533 293.532 299.641C295.504 299.749 297.671 299.328 298.915 297.965C299.589 297.232 299.929 296.305 300.494 295.508C301.032 294.763 301.768 294.147 302.636 293.714C303.155 294.668 303.441 295.708 303.476 296.767C303.512 297.826 303.296 298.879 302.842 299.859C302.389 300.839 301.708 301.723 300.844 302.454C299.98 303.184 298.952 303.745 297.828 304.1C296.703 304.454 295.507 304.595 294.318 304.512C293.128 304.429 291.972 304.125 290.923 303.619C289.875 303.113 288.958 302.416 288.233 301.575C287.508 300.734 286.991 299.766 286.715 298.736C287.037 298.746 287.359 298.768 287.68 298.795Z" fill="black"/>
<path opacity="0.1" d="M285.252 321.071C286.718 321.127 288.175 320.848 289.484 320.259C290.792 319.67 291.908 318.791 292.722 317.708C293.537 316.625 294.023 315.373 294.134 314.075C294.245 312.776 293.977 311.474 293.355 310.294C292.676 310.698 292.092 311.216 291.638 311.819C291.031 312.632 290.667 313.57 289.95 314.319C288.627 315.704 286.357 316.156 284.305 316.07C282.254 315.984 280.263 315.472 278.236 315.305C277.95 315.305 277.659 315.262 277.374 315.257C277.796 316.855 278.793 318.287 280.215 319.336C281.637 320.385 283.405 320.994 285.252 321.071Z" fill="black"/>
<path opacity="0.1" d="M305.956 333.286C307.074 333.335 308.192 333.187 309.246 332.85C310.299 332.514 311.268 331.996 312.095 331.327C312.922 330.657 313.593 329.85 314.067 328.949C314.542 328.049 314.811 327.075 314.86 326.082C314.928 324.899 314.676 323.718 314.126 322.639C313.418 323.047 312.801 323.567 312.305 324.174C311.643 325.004 311.231 325.958 310.484 326.723C309.046 328.146 306.63 328.647 304.451 328.598C302.272 328.55 300.311 328.097 298.217 327.957C298.73 329.446 299.749 330.757 301.135 331.711C302.52 332.665 304.204 333.215 305.956 333.286Z" fill="black"/>
<path opacity="0.1" d="M301.707 347.97C302.164 348.875 302.816 349.691 303.628 350.372C304.44 351.053 305.395 351.586 306.438 351.939C307.482 352.293 308.594 352.461 309.71 352.433C310.827 352.405 311.926 352.182 312.945 351.777C313.965 351.372 314.884 350.792 315.652 350.072C316.419 349.351 317.019 348.503 317.417 347.577C317.815 346.65 318.004 345.663 317.972 344.672C317.941 343.681 317.69 342.705 317.234 341.8C316.533 342.209 315.903 342.706 315.364 343.276C314.557 344.155 314.023 345.146 313.088 345.971C311.346 347.49 308.536 348.126 306.029 348.175C304.585 348.18 303.142 348.111 301.707 347.97Z" fill="black"/>
<path d="M323 359.119C323 359.119 316.275 358.935 314.247 357.653C312.22 356.37 303.929 354.84 303.401 356.899C302.873 358.957 293.301 367.137 300.888 367.169C308.475 367.201 318.527 366.118 320.548 365.014C322.569 363.909 323 359.119 323 359.119Z" fill="#656380"/>
<path opacity="0.2" d="M300.754 366.452C308.348 366.506 318.393 365.401 320.414 364.297C321.956 363.467 322.569 360.476 322.775 359.097H323C323 359.097 322.575 363.909 320.572 365.024C318.569 366.14 308.506 367.223 300.912 367.18C298.721 367.18 297.968 366.474 298.005 365.445C298.29 366.053 299.122 366.441 300.754 366.452Z" fill="black"/>
</g>
<defs>
<clipPath id="clip0">
<rect width="323" height="371" fill="white" transform="matrix(-1 0 0 1 323 0)"/>
</clipPath>
</defs>
</svg>
