<svg width="80" height="75" viewBox="0 0 80 75" fill="none" xmlns="http://www.w3.org/2000/svg">
<path d="M25.9887 32.5149L25.9666 32.038H25.4893H8.48453C3.97783 32.038 0.5 29.0897 0.5 25.6757V7.37617C0.5 3.9622 3.97783 1.01384 8.48453 1.01384H70.7044C75.2111 1.01384 78.6889 3.9622 78.6889 7.37617V25.6757C78.6889 28.7777 75.8297 31.4895 71.909 31.9657L71.7665 31.983L71.6549 32.0733L61.0768 40.6289L61.0767 40.629C60.6352 40.9862 60.0265 41.1878 59.3917 41.1878C59.0778 41.1878 58.7648 41.1398 58.4691 41.04L58.4675 41.0394C57.5601 40.7366 57.0635 40.0586 57.0635 39.4004V32.538V32.038H56.5635H53.6997H53.2223L53.2002 32.5149C53.0246 36.3007 51.0736 39.7555 47.7937 42.0344L47.579 42.1836V42.445V43.9753V44.4753H48.079C55.7041 44.4753 61.7199 49.4763 61.7199 55.4125V71.4246C61.7199 72.319 60.7832 73.2121 59.3917 73.2121H19.4437C18.0523 73.2121 17.1156 72.319 17.1156 71.4246V55.4125C17.1156 49.4763 23.1313 44.4753 30.7564 44.4753H31.11H31.61V43.9753V42.445V42.1836L31.3952 42.0344C28.1154 39.7559 26.1643 36.3007 25.9887 32.5149ZM39.28 52.5668L39.5945 52.8211L39.9089 52.5668L41.7938 51.0423L41.3884 50.1619C40.803 50.2702 40.2076 50.338 39.5945 50.338C38.9813 50.338 38.3859 50.2702 37.8004 50.1619L37.395 51.0423L39.28 52.5668ZM56.5635 69.6372H57.0635V69.1372V55.4125C57.0635 52.1123 54.4213 49.4309 50.9452 48.4656L50.4367 48.3244L50.3231 48.8397C50.2439 49.199 50.0825 49.5214 49.7643 49.7785L49.7641 49.7786L42.1082 55.9707L41.9226 56.1208V56.3595V64.5623C41.9226 65.4567 40.9859 66.3497 39.5945 66.3497C38.203 66.3497 37.2663 65.4567 37.2663 64.5623V56.3595V56.1208L37.0807 55.9707L29.4246 49.779C29.4246 49.779 29.4245 49.7789 29.4245 49.7789C29.0822 49.5018 28.9149 49.1545 28.8497 48.7784L28.7585 48.253L28.2401 48.3777C24.5892 49.2559 21.7719 52.0034 21.7719 55.4125V69.1372V69.6372H22.2719H56.5635ZM61.7199 33.8786V34.926L62.5343 34.2673L69.0193 29.0221C69.4518 28.6724 70.0558 28.4632 70.7044 28.4632C72.4366 28.4632 74.0326 27.3079 74.0326 25.6757V7.37617C74.0326 5.74405 72.4367 4.58873 70.7044 4.58873H8.48453C6.75227 4.58873 5.15635 5.74405 5.15635 7.37617V25.6757C5.15635 27.3079 6.75229 28.4632 8.48453 28.4632H26.1281H26.4847L26.6008 28.126C28.353 23.0386 33.4993 19.3134 39.5945 19.3134C45.6896 19.3134 50.8359 23.0386 52.5881 28.126L52.7042 28.4632H53.0609H59.3917C60.7832 28.4632 61.7199 29.3562 61.7199 30.2506V33.8786ZM42.9226 41.3238C42.9226 40.7877 43.2491 40.235 43.8878 39.8768C46.7794 38.2621 48.579 35.2334 48.579 31.9662C48.579 26.9663 44.5543 22.8883 39.5945 22.8883C34.6346 22.8883 30.61 26.9663 30.61 31.9662C30.61 35.2334 32.4095 38.2621 35.3011 39.8768C35.9399 40.235 36.2663 40.7877 36.2663 41.3238V43.9753C36.2663 45.6074 37.8622 46.7627 39.5945 46.7627C41.3267 46.7627 42.9226 45.6074 42.9226 43.9753V41.3238Z" fill="#27AE60" stroke="white"/>
<path d="M28.2813 16.526C29.8433 16.526 31.1096 15.5018 31.1096 14.2385C31.1096 12.9751 29.8433 11.951 28.2813 11.951C26.7193 11.951 25.4531 12.9751 25.4531 14.2385C25.4531 15.5018 26.7193 16.526 28.2813 16.526Z" fill="#FFA67C"/>
<path d="M39.5942 16.526C41.1561 16.526 42.4223 15.5018 42.4223 14.2385C42.4223 12.9751 41.1561 11.951 39.5942 11.951C38.0322 11.951 36.766 12.9751 36.766 14.2385C36.766 15.5018 38.0322 16.526 39.5942 16.526Z" fill="#FFA67C"/>
<path d="M50.9074 16.526C52.4694 16.526 53.7356 15.5018 53.7356 14.2385C53.7356 12.9751 52.4694 11.951 50.9074 11.951C49.3454 11.951 48.0792 12.9751 48.0792 14.2385C48.0792 15.5018 49.3454 16.526 50.9074 16.526Z" fill="#FFA67C"/>
</svg>
