<svg width="18" height="18" viewBox="0 0 18 18" fill="none" xmlns="http://www.w3.org/2000/svg">
<path d="M8.99758 4.29428C6.44215 4.29428 4.3798 6.31533 4.3798 8.81958C4.3798 11.3238 6.44215 13.3449 8.99758 13.3449C11.553 13.3449 13.6154 11.3238 13.6154 8.81958C13.6154 6.31533 11.553 4.29428 8.99758 4.29428ZM8.99758 11.7607C7.345 11.7607 5.99636 10.4391 5.99636 8.81958C5.99636 7.20009 7.345 5.87847 8.99758 5.87847C10.6502 5.87847 11.9988 7.20009 11.9988 8.81958C11.9988 10.4391 10.6502 11.7607 8.99758 11.7607ZM13.8045 3.05429C13.2078 3.05429 12.726 3.52646 12.726 4.11115C12.726 4.69585 13.2078 5.16801 13.8045 5.16801C14.4011 5.16801 14.8829 4.69805 14.8829 4.11115C14.8831 3.97232 14.8554 3.83481 14.8012 3.7065C14.7471 3.5782 14.6677 3.46163 14.5675 3.36345C14.4673 3.26528 14.3483 3.18744 14.2174 3.13439C14.0865 3.08134 13.9462 3.05412 13.8045 3.05429ZM17.999 8.81958C17.999 7.60166 18.0103 6.39476 17.9405 5.17904C17.8707 3.76696 17.5419 2.51373 16.4883 1.48114C15.4323 0.446346 14.1557 0.12642 12.7148 0.0580223C11.472 -0.0103757 10.2404 0.000656277 8.99983 0.000656277C7.75702 0.000656277 6.52546 -0.0103757 5.28489 0.0580223C3.84395 0.12642 2.5651 0.448552 1.51141 1.48114C0.455469 2.51594 0.129004 3.76696 0.0592081 5.17904C-0.0105877 6.39697 0.000669689 7.60386 0.000669689 8.81958C0.000669689 10.0353 -0.0105877 11.2444 0.0592081 12.4601C0.129004 13.8722 0.45772 15.1254 1.51141 16.158C2.56736 17.1928 3.84395 17.5127 5.28489 17.5811C6.52771 17.6495 7.75927 17.6385 8.99983 17.6385C10.2426 17.6385 11.4742 17.6495 12.7148 17.5811C14.1557 17.5127 15.4346 17.1906 16.4883 16.158C17.5442 15.1232 17.8707 13.8722 17.9405 12.4601C18.0125 11.2444 17.999 10.0375 17.999 8.81958ZM16.0177 14.0222C15.8533 14.4238 15.6552 14.7239 15.3377 15.0328C15.0203 15.3439 14.7163 15.538 14.3066 15.6991C13.1223 16.1602 10.3102 16.0565 8.99758 16.0565C7.68497 16.0565 4.87062 16.1602 3.68634 15.7013C3.27657 15.5402 2.97037 15.3461 2.65516 15.035C2.33771 14.7239 2.13958 14.426 1.97522 14.0244C1.50691 12.8617 1.61273 10.1059 1.61273 8.81958C1.61273 7.53326 1.50691 4.77527 1.97522 3.61472C2.13958 3.21315 2.33771 2.91309 2.65516 2.60419C2.97262 2.2953 3.27657 2.09893 3.68634 1.93786C4.87062 1.47893 7.68497 1.58263 8.99758 1.58263C10.3102 1.58263 13.1245 1.47893 14.3088 1.93786C14.7186 2.09893 15.0248 2.29309 15.34 2.60419C15.6575 2.91529 15.8556 3.21315 16.0199 3.61472C16.4883 4.77527 16.3824 7.53326 16.3824 8.81958C16.3824 10.1059 16.4883 12.8617 16.0177 14.0222Z" fill="#163F5B"/>
</svg>
