<svg width="72" height="72" viewBox="0 0 72 72" fill="none" xmlns="http://www.w3.org/2000/svg">
<path d="M39.478 16.493C45.027 12.563 48.232 15.859 48.232 15.859C48.6944 16.2625 48.9783 16.8325 49.0218 17.4447C49.0652 18.0568 48.8647 18.6612 48.464 19.126L38.498 30.62C38.0947 31.0825 37.5247 31.3666 36.9126 31.4102C36.3005 31.4539 35.696 31.2536 35.231 30.853L31.518 27.633C31.0556 27.2296 30.7715 26.6597 30.7278 26.0475C30.6842 25.4354 30.8845 24.8309 31.285 24.366L32.916 22.484L36.151 25.289L41.962 18.586L39.478 16.493Z" fill="white"/>
<path d="M45.966 22.194L38.86 30.39C38.4566 30.8525 37.8867 31.1366 37.2745 31.1802C36.6624 31.2239 36.0579 31.0236 35.593 30.623L31.88 27.403C31.4175 26.9996 31.1334 26.4297 31.0898 25.8176C31.0461 25.2054 31.2464 24.6009 31.647 24.136L33.279 22.254L36.513 25.058L38.93 22.27" fill="white"/>
<path d="M14.271 50.034L7.86597 47.472V63.893H14.271V50.034Z" fill="white"/>
<path d="M10.38 49.63V63.713H13.583V50.9L10.38 49.63Z" fill="#27AE60"/>
<path d="M30.613 48.78L24.208 50.473V63.893H30.613V48.78Z" fill="white"/>
<path d="M27.41 50.111V64.194H30.613V48.78L27.41 50.111Z" fill="#27AE60"/>
<path d="M48.353 36.383L41.948 42.796V63.935H48.353V36.383Z" fill="white"/>
<path d="M44.515 40.249V64.194H47.718V37.986L44.515 40.249Z" fill="#27AE60"/>
<path d="M64.822 11.896L58.417 22.378V63.893H64.822V11.896Z" fill="white"/>
<path d="M61.62 17.866V63.358H64.822V13.565L61.62 17.866Z" fill="#27AE60"/>
<path d="M62.359 6.19501C62.359 6.19501 36.534 62.135 7.17798 42.17" stroke="#27AE60" stroke-width="2" stroke-miterlimit="10" stroke-linecap="round"/>
<path d="M47.718 36.383L41.313 42.796V63.935H47.718V36.383Z" stroke="#27AE60" stroke-width="2" stroke-linecap="round" stroke-linejoin="round"/>
<path d="M30.613 48.78L24.208 50.473V63.893H30.613V48.78Z" stroke="#27AE60" stroke-width="2" stroke-linecap="round" stroke-linejoin="round"/>
<path d="M13.583 50.034L7.17798 47.472V63.893H13.583V50.034Z" stroke="#27AE60" stroke-width="2" stroke-linecap="round" stroke-linejoin="round"/>
<path d="M39.86 16.45C45.41 12.52 48.615 15.816 48.615 15.816C49.0773 16.2195 49.3612 16.7896 49.4047 17.4017C49.4482 18.0138 49.2477 18.6182 48.847 19.083L38.881 30.578C38.4776 31.0405 37.9077 31.3246 37.2955 31.3682C36.6834 31.4119 36.0789 31.2116 35.614 30.811L31.901 27.591C31.4385 27.1877 31.1544 26.6177 31.1107 26.0056C31.0671 25.3934 31.2674 24.7889 31.668 24.324L33.3 22.442L36.534 25.246L42.346 18.543L39.86 16.45Z" stroke="#27AE60" stroke-width="2" stroke-linecap="round" stroke-linejoin="round"/>
<path d="M48.575 22.32C49.4311 22.32 50.125 21.626 50.125 20.77C50.125 19.914 49.4311 19.22 48.575 19.22C47.719 19.22 47.025 19.914 47.025 20.77C47.025 21.626 47.719 22.32 48.575 22.32Z" fill="#27AE60"/>
<path d="M46.884 24.541C47.74 24.541 48.434 23.8471 48.434 22.991C48.434 22.135 47.74 21.441 46.884 21.441C46.0279 21.441 45.334 22.135 45.334 22.991C45.334 23.8471 46.0279 24.541 46.884 24.541Z" fill="#27AE60"/>
<path d="M40.0209 32.186C40.877 32.186 41.5709 31.4921 41.5709 30.636C41.5709 29.78 40.877 29.086 40.0209 29.086C39.1649 29.086 38.4709 29.78 38.4709 30.636C38.4709 31.4921 39.1649 32.186 40.0209 32.186Z" fill="#27AE60"/>
<path d="M42.21 30.158C43.0661 30.158 43.76 29.4641 43.76 28.608C43.76 27.752 43.0661 27.058 42.21 27.058C41.354 27.058 40.66 27.752 40.66 28.608C40.66 29.4641 41.354 30.158 42.21 30.158Z" fill="#27AE60"/>
<path d="M64.822 11.896L58.417 22.378V63.893H64.822V11.896Z" stroke="#27AE60" stroke-width="2" stroke-linecap="round" stroke-linejoin="round"/>
</svg>
