<svg width="150" height="150" viewBox="0 0 150 150" fill="none" xmlns="http://www.w3.org/2000/svg">
<g filter="url(#filter0_d)">
<circle cx="75" cy="70" r="50" fill="#FAFAFA"/>
</g>
<path d="M94.4447 53.3333H55.5559C54.8191 53.3333 54.1126 53.626 53.5917 54.1469C53.0707 54.6678 52.7781 55.3744 52.7781 56.1111V83.8889C52.7781 84.6256 53.0707 85.3321 53.5917 85.8531C54.1126 86.374 54.8191 86.6666 55.5559 86.6666H76.3892L77.1809 85.6944L78.4725 84.1111L78.3475 83.8889H55.5559V56.1111H94.4447V68C95.4999 68.683 96.4379 69.5319 97.2225 70.5139V56.1111C97.2225 55.3744 96.9299 54.6678 96.4089 54.1469C95.888 53.626 95.1815 53.3333 94.4447 53.3333Z" fill="#2F80ED"/>
<path d="M59.7219 61.6667H83.333V63.8889H59.7219V61.6667Z" fill="#2F80ED"/>
<path d="M59.7219 67.2223H74.9997V69.4445H59.7219V67.2223Z" fill="#2F80ED"/>
<path d="M59.7219 76.9444H73.6108V79.1666H59.7219V76.9444Z" fill="#2F80ED"/>
<path d="M88.1391 68.9305C86.3618 68.9164 84.6215 69.4387 83.1458 70.4293C81.6701 71.4199 80.5275 72.8327 79.8674 74.4829C79.2073 76.1332 79.0604 77.9442 79.4458 79.6792C79.8313 81.4143 80.7312 82.9927 82.028 84.2083L79.3335 87.4999L80.5835 92.5138L85.6669 86.3194C87.2759 86.7952 88.9883 86.7952 90.5974 86.3194L95.6807 92.5138L96.9307 87.4999L94.2363 84.2083C95.5331 82.9927 96.433 81.4143 96.8184 79.6792C97.2039 77.9442 97.057 76.1332 96.3969 74.4829C95.7368 72.8327 94.5942 71.4199 93.1185 70.4293C91.6427 69.4387 89.9025 68.9164 88.1252 68.9305H88.1391ZM88.1391 83.7638C86.9588 83.7474 85.8098 83.3824 84.8364 82.7147C83.863 82.047 83.1087 81.1065 82.6684 80.0113C82.2281 78.9162 82.1214 77.7153 82.3617 76.5596C82.602 75.404 83.1786 74.3452 84.0189 73.5163C84.8593 72.6875 85.926 72.1256 87.0849 71.9012C88.2437 71.6769 89.4431 71.8003 90.532 72.2557C91.621 72.7111 92.551 73.4783 93.2052 74.4608C93.8593 75.4434 94.2084 76.5973 94.2085 77.7777C94.1938 79.3752 93.547 80.9019 92.4096 82.0237C91.2721 83.1456 89.7366 83.7712 88.1391 83.7638Z" fill="#2F80ED"/>
<defs>
<filter id="filter0_d" x="0" y="0" width="150" height="150" filterUnits="userSpaceOnUse" color-interpolation-filters="sRGB">
<feFlood flood-opacity="0" result="BackgroundImageFix"/>
<feColorMatrix in="SourceAlpha" type="matrix" values="0 0 0 0 0 0 0 0 0 0 0 0 0 0 0 0 0 0 127 0"/>
<feOffset dy="5"/>
<feGaussianBlur stdDeviation="12.5"/>
<feColorMatrix type="matrix" values="0 0 0 0 0.0572916 0 0 0 0 0.519156 0 0 0 0 0.625 0 0 0 0.2 0"/>
<feBlend mode="normal" in2="BackgroundImageFix" result="effect1_dropShadow"/>
<feBlend mode="normal" in="SourceGraphic" in2="effect1_dropShadow" result="shape"/>
</filter>
</defs>
</svg>
