<svg width="150" height="150" viewBox="0 0 150 150" fill="none" xmlns="http://www.w3.org/2000/svg">
<g filter="url(#filter0_d)">
<circle cx="75" cy="70" r="50" fill="#FAFAFA"/>
</g>
<g clip-path="url(#clip0)">
<path d="M57.6923 49.7692C53.4673 49.7692 50 53.2346 50 57.4615V80.5385C50 84.7635 53.4673 88.2308 57.6923 88.2308H61.5385C62.0485 88.2308 62.5376 88.0282 62.8983 87.6675C63.2589 87.3069 63.4615 86.8177 63.4615 86.3077V84.3846H65.3846V86.3077C65.3846 86.8177 65.5872 87.3069 65.9479 87.6675C66.3085 88.0282 66.7977 88.2308 67.3077 88.2308H82.6923C83.2023 88.2308 83.6915 88.0282 84.0521 87.6675C84.4128 87.3069 84.6154 86.8177 84.6154 86.3077V84.3846H86.5385V86.3077C86.5385 86.8177 86.7411 87.3069 87.1017 87.6675C87.4624 88.0282 87.9515 88.2308 88.4615 88.2308H92.3077C96.5327 88.2308 100 84.7635 100 80.5385V57.4615C100 53.2346 96.5327 49.7692 92.3077 49.7692H57.6923ZM57.6923 53.6154H92.3077C94.4519 53.6154 96.1538 55.3154 96.1538 57.4615V80.5385C96.1538 82.6827 94.4519 84.3846 92.3077 84.3846H90.3846V82.4615C90.3846 81.9515 90.182 81.4624 89.8214 81.1017C89.4607 80.7411 88.9716 80.5385 88.4615 80.5385H82.6923C82.1823 80.5385 81.6931 80.7411 81.3325 81.1017C80.9718 81.4624 80.7692 81.9515 80.7692 82.4615V84.3846H69.2308V82.4615C69.2308 81.9515 69.0282 81.4624 68.6675 81.1017C68.3069 80.7411 67.8177 80.5385 67.3077 80.5385H61.5385C61.0284 80.5385 60.5393 80.7411 60.1786 81.1017C59.818 81.4624 59.6154 81.9515 59.6154 82.4615V84.3846H57.6923C55.5481 84.3846 53.8462 82.6827 53.8462 80.5385V57.4615C53.8462 55.3154 55.5481 53.6154 57.6923 53.6154ZM65.3846 57.5827C63.1923 57.5827 61.5981 59.1346 61.5981 61.9673C61.5981 63.8192 62.3865 65.075 63.5212 66.2365C63.9635 67.3961 63.1462 67.7961 62.9808 67.8577C60.6885 68.6865 57.8115 69.9115 57.8115 71.4038V72.1846C57.8115 74.2192 61.7365 74.6481 65.3846 74.6481C69.0385 74.6481 72.9577 74.2192 72.9577 72.1865V71.4038C72.9577 69.8654 70.0731 68.6538 67.6692 67.8577C67.5558 67.8211 66.8731 67.55 67.3077 66.2346C68.4385 65.0731 69.1115 63.8115 69.1115 61.9692C69.1115 59.1327 67.575 57.5827 65.3846 57.5827ZM85.5769 57.6404C84.4077 57.6404 83.3019 57.8096 82.2712 58.2423C81.2596 58.6588 80.3406 59.2716 79.5672 60.0453C78.7938 60.819 78.1814 61.7383 77.7654 62.75C77.3288 63.7788 77.1635 64.9231 77.1635 66.1154C77.1635 67.3692 77.3462 68.4923 77.7654 69.5404C78.1808 70.5923 78.7596 71.4923 79.5077 72.2442C80.2462 72.9904 81.1269 73.5769 82.1519 73.9885C83.2252 74.4011 84.3675 74.6048 85.5173 74.5885C86.2288 74.5885 86.8635 74.5942 87.4404 74.5288C88.0135 74.4654 88.625 74.3635 89.2423 74.2288V72.125C88.6788 72.2885 88.05 72.4481 87.3808 72.5461C86.7115 72.6423 86.0865 72.6654 85.5154 72.6654C84.7077 72.6654 83.9115 72.5269 83.1731 72.2442C82.45 71.9645 81.7946 71.5345 81.25 70.9827C80.6474 70.4095 80.1757 69.7128 79.8673 68.9404C79.5365 68.1135 79.3865 67.1711 79.3865 66.1154C79.3865 65.125 79.5788 64.2288 79.9269 63.4115C80.2808 62.5942 80.7346 61.8654 81.3115 61.3077C81.9135 60.7308 82.5808 60.3365 83.2923 60.0461C84.0077 59.7519 84.7731 59.5654 85.5769 59.5654C86.4231 59.5654 87.1904 59.7231 87.9212 59.9865C88.6519 60.2481 89.3019 60.6404 89.8442 61.1865C90.3808 61.725 90.8077 62.375 91.1058 63.1711C91.4058 63.9692 91.5269 64.9308 91.5269 65.9961C91.5269 66.5981 91.4712 67.1538 91.3462 67.7385C91.2426 68.2748 91.0815 68.7983 90.8654 69.3H89.3635V61.4269H87.0769V62.0288C86.8449 61.811 86.5818 61.6289 86.2962 61.4885C85.9398 61.319 85.5483 61.2366 85.1538 61.2481C84.6115 61.2481 84.0923 61.3673 83.5923 61.6077C83.0923 61.8381 82.6427 62.1648 82.2692 62.5692C81.8846 63.0173 81.6 63.5788 81.3692 64.1923C81.1385 64.8077 81.0077 65.4827 81.0077 66.2365C81.0077 66.9673 81.1192 67.6558 81.3077 68.2788C81.4942 68.9038 81.7077 69.4404 82.0288 69.8423C82.3558 70.2558 82.7827 70.5231 83.2308 70.7423C83.6788 70.9615 84.1558 71.1038 84.6731 71.1038C85.025 71.1038 85.3135 71.0827 85.5154 71.0442C85.7212 71.0019 85.9385 70.9481 86.175 70.8635C86.3865 70.7942 86.5404 70.7269 86.7173 70.6231C86.8865 70.5192 87.0808 70.3788 87.2577 70.2615L87.3788 70.9231H92.3654C92.8229 70.2414 93.1682 69.4909 93.3885 68.7C93.6577 67.7442 93.7481 66.8231 93.7481 65.9346C93.7481 64.6788 93.5577 63.5231 93.1462 62.5096C92.7496 61.5373 92.1564 60.6574 91.4038 59.925C90.6681 59.1921 89.7888 58.6192 88.8212 58.2423C87.7877 57.8356 86.6856 57.6319 85.575 57.6423L85.5769 57.6404ZM85.4558 63.1711C85.7538 63.1711 86.0615 63.1711 86.2981 63.2308C86.5327 63.2904 86.7404 63.3961 87.0192 63.5308V68.4596C86.7856 68.6754 86.5228 68.8573 86.2385 69C85.9621 69.153 85.6524 69.2355 85.3365 69.2404C84.6635 69.2404 84.1885 68.9558 83.8942 68.4596C83.6 67.9635 83.4135 67.2519 83.4135 66.2365C83.4135 65.3154 83.6 64.5692 83.9538 64.0115C84.1047 63.7482 84.3244 63.5309 84.5893 63.3829C84.8542 63.2349 85.1544 63.1617 85.4577 63.1711H85.4558Z" fill="#2F80ED"/>
</g>
<defs>
<filter id="filter0_d" x="0" y="0" width="150" height="150" filterUnits="userSpaceOnUse" color-interpolation-filters="sRGB">
<feFlood flood-opacity="0" result="BackgroundImageFix"/>
<feColorMatrix in="SourceAlpha" type="matrix" values="0 0 0 0 0 0 0 0 0 0 0 0 0 0 0 0 0 0 127 0"/>
<feOffset dy="5"/>
<feGaussianBlur stdDeviation="12.5"/>
<feColorMatrix type="matrix" values="0 0 0 0 0.0572916 0 0 0 0 0.519156 0 0 0 0 0.625 0 0 0 0.2 0"/>
<feBlend mode="normal" in2="BackgroundImageFix" result="effect1_dropShadow"/>
<feBlend mode="normal" in="SourceGraphic" in2="effect1_dropShadow" result="shape"/>
</filter>
<clipPath id="clip0">
<rect width="50" height="50" fill="white" transform="translate(50 44)"/>
</clipPath>
</defs>
</svg>
