<svg width="20" height="16" viewBox="0 0 20 16" fill="none" xmlns="http://www.w3.org/2000/svg">
<path d="M19.5826 2.75491C19.4687 2.31028 19.2455 1.9048 18.9353 1.57905C18.625 1.25331 18.2386 1.01873 17.8147 0.898781C16.2545 0.45874 10 0.45874 10 0.45874C10 0.45874 3.74554 0.45874 2.18527 0.89644C1.76121 1.016 1.37461 1.25045 1.0643 1.57625C0.753989 1.90206 0.530891 2.30774 0.417411 2.75257C-8.51495e-08 4.39102 0 7.80835 0 7.80835C0 7.80835 -8.51495e-08 11.2257 0.417411 12.8618C0.647321 13.7653 1.32589 14.4768 2.18527 14.7179C3.74554 15.158 10 15.158 10 15.158C10 15.158 16.2545 15.158 17.8147 14.7179C18.6763 14.4768 19.3527 13.7653 19.5826 12.8618C20 11.2257 20 7.80835 20 7.80835C20 7.80835 20 4.39102 19.5826 2.75491ZM8.01339 10.9448V4.67189L13.192 7.78494L8.01339 10.9448Z" fill="#163F5B"/>
</svg>
