<svg width="22" height="22" viewBox="0 0 22 22" fill="none" xmlns="http://www.w3.org/2000/svg">
<path d="M11 20.1666C15.9692 20.1666 20.1667 15.9692 20.1667 11C20.1667 6.03073 15.9692 1.83331 11 1.83331C6.03075 1.83331 1.83333 6.03073 1.83333 11C1.83333 15.9692 6.03075 20.1666 11 20.1666ZM11 3.66665C14.9756 3.66665 18.3333 7.0244 18.3333 11C18.3333 14.9756 14.9756 18.3333 11 18.3333C7.02441 18.3333 3.66666 14.9756 3.66666 11C3.66666 7.0244 7.02441 3.66665 11 3.66665Z" fill="#163F5B"/>
<path d="M11 15.5834C11.8259 15.5834 13.3659 15.4294 14.3981 14.399L13.1019 13.101C12.6958 13.5071 11.9093 13.75 11 13.75C9.5095 13.75 8.25001 12.4905 8.25001 11C8.25001 9.50952 9.5095 8.25002 11 8.25002C11.9103 8.25002 12.6968 8.49294 13.1019 8.8981L14.3981 7.60194C13.3668 6.57069 11.8259 6.41669 11 6.41669C8.47275 6.41669 6.41667 8.47277 6.41667 11C6.41667 13.5273 8.47275 15.5834 11 15.5834Z" fill="#163F5B"/>
</svg>
